<?xml version="1.0" encoding="utf-8"?>
<svg viewBox="0 0 156 50" fill="none" xmlns="http://www.w3.org/2000/svg" xmlns:bx="https://boxy-svg.com">
  <defs>
    <linearGradient id="paint0_linear_39_9940" x1="13.2624" y1="-1.13078" x2="13.2624" y2="49.0034" gradientUnits="userSpaceOnUse">
      <stop stop-color="#FAAF40"/>
      <stop offset="1" stop-color="#EE4036"/>
    </linearGradient>
    <linearGradient id="paint1_linear_39_9940" x1="33.7326" y1="-1.1308" x2="33.7326" y2="49.0033" gradientUnits="userSpaceOnUse">
      <stop stop-color="#FAAF40"/>
      <stop offset="1" stop-color="#EE4036"/>
    </linearGradient>
    <linearGradient id="paint2_linear_39_9940" x1="11.2596" y1="53.9219" x2="11.2596" y2="16.0032" gradientUnits="userSpaceOnUse">
      <stop stop-color="#26CDBA"/>
      <stop offset="1" stop-color="#6336E6"/>
    </linearGradient>
    <linearGradient id="paint3_linear_39_9940" x1="15.6096" y1="53.9223" x2="15.6096" y2="16.0038" gradientUnits="userSpaceOnUse">
      <stop stop-color="#26CDBA"/>
      <stop offset="1" stop-color="#6336E6"/>
    </linearGradient>
    <linearGradient id="paint4_linear_39_9940" x1="35.7352" y1="53.9219" x2="35.7352" y2="16.0032" gradientUnits="userSpaceOnUse">
      <stop stop-color="#26CDBA"/>
      <stop offset="1" stop-color="#6336E6"/>
    </linearGradient>
    <linearGradient id="paint5_linear_39_9940" x1="31.3861" y1="53.9212" x2="31.3861" y2="16.0027" gradientUnits="userSpaceOnUse">
      <stop stop-color="#26CDBA"/>
      <stop offset="1" stop-color="#6336E6"/>
    </linearGradient>
    <linearGradient id="paint6_linear_39_9940" x1="22.9384" y1="-1.13036" x2="22.9384" y2="49.0038" gradientUnits="userSpaceOnUse">
      <stop stop-color="#FAAF40"/>
      <stop offset="1" stop-color="#EE4036"/>
    </linearGradient>
    <style bx:fonts="Alata">@import url(https://fonts.googleapis.com/css2?family=Alata%3Aital%2Cwght%400%2C400&amp;display=swap);</style>
    <style bx:fonts="Alatsi">@import url(https://fonts.googleapis.com/css2?family=Alatsi%3Aital%2Cwght%400%2C400&amp;display=swap);</style>
  </defs>
  <path d="M22.5195 46.8457V47.7495C20.8542 45.5178 16.0986 41.0176 3.99707 38.8044V19.9922C5.34786 20.232 6.64313 20.527 7.86439 20.8406V37.0339L8.17896 37.1076C14.4518 38.5647 18.0231 41.1467 19.9105 43.0649C20.3175 43.4706 20.6506 43.8579 20.9467 44.2268C20.9837 44.2821 21.0207 44.3374 21.0762 44.3928C21.1502 44.485 21.2057 44.5588 21.2612 44.6325C21.2983 44.6694 21.3168 44.7063 21.3538 44.7616C21.5388 45.0198 21.6868 45.2596 21.8349 45.4625C21.8904 45.5547 21.9459 45.6469 22.0014 45.7391C22.2605 46.1818 22.4085 46.5138 22.4825 46.7166C22.4825 46.7351 22.501 46.7535 22.501 46.772C22.501 46.8089 22.5195 46.8273 22.5195 46.8457Z" fill="url(#paint0_linear_39_9940)"/>
  <path d="M24.4805 46.8457V47.7495C26.1458 45.5178 30.9013 41.0176 43.0029 38.8044V19.9922C41.6521 20.232 40.3568 20.527 39.1356 20.8406V37.0339L38.821 37.1076C32.5482 38.5647 28.9769 41.1467 27.0895 43.0649C26.6824 43.4706 26.3494 43.8579 26.0533 44.2268C26.0163 44.2821 25.9793 44.3374 25.9238 44.3928C25.8498 44.485 25.7942 44.5588 25.7387 44.6325C25.7017 44.6694 25.6832 44.7063 25.6462 44.7616C25.4612 45.0198 25.3131 45.2596 25.1651 45.4625C25.1096 45.5547 25.0541 45.6469 24.9986 45.7391C24.7395 46.1818 24.5915 46.5138 24.5175 46.7166C24.5175 46.7351 24.499 46.7535 24.499 46.772C24.499 46.8089 24.4805 46.8273 24.4805 46.8457Z" fill="url(#paint1_linear_39_9940)"/>
  <path d="M22.5193 49.2995V50.0003C20.6689 47.8609 15.0622 43.1394 0 40.8708V22.0586C1.09173 22.2246 2.14646 22.409 3.18268 22.6119V39.5245L3.51575 39.5798C11.824 41.0553 16.561 43.6373 19.0776 45.5555C21.4831 47.3814 22.3528 48.9675 22.5193 49.2995Z" fill="url(#paint2_linear_39_9940)"/>
  <path d="M22.5197 41.3139V45.021C22.0941 44.3386 21.465 43.4718 20.5583 42.5496C18.6154 40.5762 15.0071 37.9387 8.69727 36.4079V17.5957C14.6555 19.0712 18.0788 21.5795 19.9107 23.4238C20.4658 23.9956 20.9284 24.5304 21.2799 25.0284C21.2614 25.0653 21.2429 25.1206 21.2244 25.1575C20.5398 26.9281 19.3555 28.1084 17.7087 28.6617L16.839 28.9568L17.2276 29.7868L22.2051 40.6684L22.2421 40.7606L22.5197 41.3139Z" fill="url(#paint3_linear_39_9940)"/>
  <path d="M24.4805 49.2995V50.0003C26.3309 47.8609 31.9376 43.1394 46.9998 40.8708V22.0586C45.908 22.2246 44.8533 22.409 43.8171 22.6119V39.5245L43.484 39.5798C35.1757 41.0553 30.4387 43.6373 27.9222 45.5555C25.5167 47.3814 24.647 48.9675 24.4805 49.2995Z" fill="url(#paint4_linear_39_9940)"/>
  <path d="M38.3029 17.5762V36.3884C31.9931 37.9192 28.3848 40.5751 26.4419 42.5301C25.5352 43.4522 24.9061 44.3191 24.4805 45.0015V41.3128L24.795 40.6488L29.7726 29.7672L30.1612 28.9373L29.2915 28.6422C27.6631 28.1073 26.4789 26.927 25.7757 25.138C25.7572 25.1011 25.7387 25.0457 25.7202 25.0089C26.0718 24.5293 26.5344 23.976 27.0895 23.4043C28.9214 21.5599 32.3446 19.0701 38.3029 17.5762Z" fill="url(#paint5_linear_39_9940)"/>
  <path d="M25.2398 31.1324C25.2398 30.2103 24.5922 29.4356 23.704 29.2512C23.5744 29.2143 23.4449 29.2143 23.2969 29.2143C23.0193 29.2143 22.7418 29.2696 22.5012 29.3803C21.8351 29.6754 21.354 30.3578 21.354 31.1324C21.354 31.612 21.5205 32.0362 21.8166 32.3866C22.0016 32.6079 22.2237 32.7739 22.5012 32.903C22.6493 32.9583 22.7973 33.0136 22.9453 33.0505V40.3172L22.5012 39.3397L21.0024 36.0568L17.9863 29.4541C19.189 29.0483 20.0957 28.3844 20.7618 27.6097C21.243 27.0564 21.5945 26.4662 21.8536 25.8761C22.6307 24.1608 22.6493 22.5378 22.6493 22.5378V22.2243C22.6493 20.6381 22.2052 19.8635 21.317 18.9045C20.8359 18.388 20.2437 17.8163 19.5221 17.0417C19.2815 16.765 19.004 16.4884 18.7264 16.1564C16.691 13.7956 16.802 11.1398 16.95 10.0701V10.0516C16.9685 9.90409 17.0055 9.75655 17.0426 9.59056C17.0426 9.57211 17.0426 9.57211 17.0426 9.57211C17.5237 7.19292 19.0965 3.33825 24.0741 0C24.0741 0 24.0741 0.0553301 24.0556 0.129104C23.9815 0.719292 23.3339 2.28698 25.3693 5.18259C26.8126 7.24825 26.239 9.42457 26.239 9.42457C27.3863 7.9491 26.6276 6.32608 26.5906 6.19698C26.5906 6.19698 26.5906 6.19698 26.6091 6.21542C30.5874 9.38768 28.589 14.0354 26.4426 17.7056C24.3701 21.2468 24.3516 22.2427 24.3516 22.2427V22.5194C24.3516 22.5194 24.3886 24.9354 25.7579 26.9827C26.4426 28.0155 27.4788 28.9377 28.9961 29.4541L24.0185 40.3357V32.9583C24.7402 32.6448 25.2398 31.9439 25.2398 31.1324Z" fill="url(#paint6_linear_39_9940)"/>
  <path opacity="0.3" d="M24.3516 22.2237V22.5003C24.3516 22.5003 24.3886 24.9164 25.7579 26.9636C25.7579 26.9636 24.7772 27.8489 23.704 29.2506C23.5745 29.2137 23.4449 29.2137 23.2969 29.2137C23.0193 29.2137 22.7418 29.2691 22.5012 29.3797C21.8351 29.6748 21.354 30.3572 21.354 31.1318C21.354 31.6114 21.5205 32.0356 21.8166 32.386C21.317 33.511 20.9839 34.7652 20.9839 36.0378L17.9678 29.4351C19.1705 29.0293 20.0772 28.3653 20.7434 27.5907C21.2245 27.0374 21.576 26.4472 21.8351 25.857C22.6123 24.1418 22.6308 22.5188 22.6308 22.5188V22.2053C22.6308 20.6191 22.1867 19.8445 21.2985 18.8854C20.8174 18.369 20.2253 17.7973 19.5036 17.0227C29.9213 13.0758 26.6831 6.38083 26.6091 6.21484C26.6091 6.21484 26.6091 6.21484 26.6276 6.21484C30.606 9.3871 28.6075 14.0348 26.4611 17.7051C24.3701 21.2093 24.3516 22.2237 24.3516 22.2237Z" fill="#012E4A"/>
  <path opacity="0.3" d="M38.3029 17.5762V36.3884C31.9931 37.9192 28.3848 40.5751 26.4419 42.5301C25.5352 43.4522 24.9061 44.3191 24.4805 45.0015C24.4805 45.0199 27.2561 34.3596 38.3029 17.5762Z" fill="#012E4A"/>
  <path opacity="0.3" d="M22.5197 45.021C22.0941 44.3386 21.465 43.4718 20.5583 42.5496C18.6154 40.5762 15.0071 37.9388 8.69727 36.408C13.3973 28.4773 19.9107 23.4238 19.9107 23.4238L21.2799 25.0284C21.2614 25.0653 21.2429 25.1206 21.2244 25.1575C20.5398 26.9281 19.3555 28.1084 17.7087 28.6617L16.839 28.9568L17.2276 29.7868L22.2051 40.6684L22.5197 41.3323V45.021Z" fill="#012E4A"/>
  <text style="fill: rgb(1, 46, 74); font-family: Alata; font-size: 28px; paint-order: fill; white-space: pre;" x="42.712" y="26.172" dx="10.606" dy="0.196">P</text>
  <text style="fill: rgb(1, 46, 74); font-family: Alatsi; font-size: 28px; white-space: pre;" x="69.298" y="26.112">r</text>
  <text style="fill: rgb(1, 46, 74); font-family: Alatsi; font-size: 28px; white-space: pre;" x="82.2" y="26.702">i</text>
  <text style="fill: rgb(1, 46, 74); font-family: Alatsi; font-size: 28px; white-space: pre;" x="92.805" y="26.309">m</text>
  <text style="fill: rgb(1, 46, 74); font-family: Alatsi; font-size: 28px; white-space: pre;" x="117.159" y="26.702">e</text>
  <text style="fill: rgb(1, 46, 74); font-family: Alatsi; font-size: 28px; white-space: pre;" x="136.122" y="48.15" transform="matrix(1.053199052810669, 0, 0, 1, -5.288695812225342, 0)">s</text>
  <text style="fill: rgb(1, 46, 74); font-family: Alata; font-size: 35.256px; paint-order: fill; white-space: pre;" transform="matrix(0.9407980442047119, 0, 0, 0.7941910028457642, 0.5365379452705383, 10.183954238891602)" x="57.24" y="48.137" dx="10.606" dy="0.196">B</text>
  <text style="fill: rgb(1, 46, 74); font-family: Alata; font-size: 35.256px; paint-order: fill; white-space: pre;" transform="matrix(0.9407980442047119, 0, 0, 0.7941910028457642, 21.307710647583008, 9.663186073303223)" x="57.24" y="48.137" dx="10.606" dy="0.196">o</text>
  <text style="fill: rgb(1, 46, 74); font-family: Alata; font-size: 35.256px; paint-order: fill; white-space: pre;" transform="matrix(0.9407980442047119, 0, 0, 0.7941910028457642, 39.559593200683594, 9.922609329223633)" x="57.24" y="48.137" dx="10.606" dy="0.196">o</text>
  <text style="fill: rgb(1, 46, 74); font-family: Alata; font-size: 35.256px; paint-order: fill; white-space: pre;" transform="matrix(0.9407980442047119, 0, 0, 0.7941910028457642, 57.33154296875, 9.922609329223633)" x="57.24" y="48.137" dx="10.606" dy="0.196">k</text>
</svg>